<?xml version="1.0" standalone="no"?>
<!DOCTYPE svg PUBLIC "-//W3C//DTD SVG 20010904//EN"
 "http://www.w3.org/TR/2001/REC-SVG-20010904/DTD/svg10.dtd">
<svg version="1.0" xmlns="http://www.w3.org/2000/svg"
 width="512.000000pt" height="512.000000pt" viewBox="0 0 512.000000 512.000000"
 preserveAspectRatio="xMidYMid meet">

<g transform="translate(0.000000,512.000000) scale(0.100000,-0.100000)"
fill="#000000" stroke="none">
<path d="M2400 4455 c-337 -46 -647 -193 -888 -420 -338 -318 -544 -761 -614
-1315 -16 -132 -16 -513 0 -640 57 -442 201 -770 447 -1016 257 -258 575 -391
1009 -425 291 -22 617 30 834 133 35 16 66 36 69 44 5 13 -53 241 -67 264 -4
7 -27 1 -64 -15 -294 -130 -751 -155 -1059 -58 -357 112 -608 365 -732 736
-65 194 -95 400 -95 644 0 396 69 722 214 1018 174 353 440 594 772 698 150
47 245 61 429 60 400 -1 690 -106 906 -330 258 -267 374 -652 356 -1178 -9
-264 -41 -411 -124 -577 -54 -107 -138 -200 -217 -238 -59 -28 -175 -38 -230
-20 -92 30 -145 120 -153 255 -3 52 15 286 51 678 31 329 56 602 56 606 0 15
-173 125 -250 157 -115 50 -218 67 -374 62 -108 -4 -144 -9 -204 -30 -220 -79
-418 -274 -543 -535 -148 -311 -203 -734 -133 -1022 9 -36 36 -109 61 -161
103 -213 287 -322 519 -307 178 12 350 109 460 258 l37 51 25 -52 c57 -121
197 -225 337 -251 78 -15 282 -5 360 16 333 92 560 417 626 895 17 122 17 496
0 620 -109 809 -568 1298 -1308 1395 -137 18 -382 18 -513 0z m468 -1210 c40
-12 52 -20 52 -35 0 -11 -20 -238 -45 -505 -40 -426 -48 -493 -69 -545 -49
-121 -151 -241 -239 -280 -48 -22 -139 -26 -199 -8 -86 26 -161 125 -187 246
-15 74 -13 287 4 411 62 432 217 680 457 731 55 12 159 5 226 -15z"/>
</g>
</svg>
