<?xml version="1.0" standalone="no"?>
<!DOCTYPE svg PUBLIC "-//W3C//DTD SVG 20010904//EN"
 "http://www.w3.org/TR/2001/REC-SVG-20010904/DTD/svg10.dtd">
<svg version="1.0" xmlns="http://www.w3.org/2000/svg"
 width="512.000000pt" height="512.000000pt" viewBox="0 0 512.000000 512.000000"
 preserveAspectRatio="xMidYMid meet">

<g transform="translate(0.000000,512.000000) scale(0.100000,-0.100000)"
fill="#000000" stroke="none">
<path d="M2482 5099 c-26 -13 -55 -39 -70 -62 l-27 -41 -3 -1660 -2 -1660
-423 421 c-453 452 -453 452 -541 439 -48 -8 -108 -52 -132 -99 -25 -47 -21
-119 9 -169 14 -24 283 -300 599 -614 492 -490 579 -572 614 -582 51 -15 59
-15 109 -1 34 9 123 94 613 582 315 315 584 590 597 612 31 55 37 89 25 137
-16 56 -46 94 -95 118 -49 24 -93 25 -143 5 -25 -11 -169 -148 -454 -433
l-418 -417 0 1650 c0 1580 -1 1652 -19 1690 -22 48 -44 69 -94 90 -50 21 -94
19 -145 -6z"/>
<path d="M470 344 c-73 -32 -111 -88 -112 -164 0 -60 29 -116 79 -150 l37 -25
2074 -3 2075 -2 44 21 c106 51 128 205 41 286 -60 57 83 53 -2150 53 -1811 -1
-2057 -3 -2088 -16z"/>
</g>
</svg>
