<?xml version="1.0" standalone="no"?>
<!DOCTYPE svg PUBLIC "-//W3C//DTD SVG 20010904//EN"
 "http://www.w3.org/TR/2001/REC-SVG-20010904/DTD/svg10.dtd">
<svg version="1.0" xmlns="http://www.w3.org/2000/svg"
 width="512.000000pt" height="512.000000pt" viewBox="0 0 512.000000 512.000000"
 preserveAspectRatio="xMidYMid meet">

<g transform="translate(0.000000,512.000000) scale(0.100000,-0.100000)"
fill="#000000" stroke="none">
<path d="M4020 5101 c-40 -21 -80 -83 -80 -124 0 -15 6 -42 14 -60 8 -18 118
-135 245 -262 127 -126 231 -233 231 -237 0 -4 -242 -8 -537 -11 -498 -3 -545
-5 -628 -24 -202 -46 -401 -132 -570 -246 -99 -68 -331 -291 -360 -346 -22
-44 -21 -112 2 -152 22 -37 80 -69 125 -69 50 0 92 28 156 102 189 219 425
356 727 425 57 13 163 16 580 20 l510 5 -236 -239 c-264 -266 -277 -285 -248
-366 20 -57 75 -99 130 -99 24 -1 58 6 74 15 17 8 197 183 402 389 320 321
372 378 378 410 15 81 18 78 -383 482 -212 212 -391 384 -409 392 -44 19 -82
18 -123 -5z"/>
<path d="M263 4394 c-100 -51 -96 -205 7 -256 31 -16 67 -18 290 -18 349 0
485 -21 680 -105 333 -142 594 -427 710 -773 56 -167 62 -227 70 -722 8 -482
11 -513 64 -692 167 -566 658 -999 1245 -1098 104 -18 166 -20 609 -20 270 0
492 -3 492 -8 0 -4 -104 -111 -231 -237 -221 -220 -259 -267 -259 -317 0 -42
38 -103 79 -126 45 -25 79 -28 124 -8 18 8 197 180 409 392 325 327 377 384
383 416 15 81 17 79 -379 476 -204 206 -383 380 -398 388 -83 44 -197 -10
-214 -101 -13 -71 6 -97 254 -347 l236 -238 -469 0 c-547 0 -639 9 -825 81
-420 160 -724 525 -812 973 -5 28 -13 256 -18 506 -8 474 -13 536 -59 700 -74
266 -217 506 -417 702 -220 215 -472 350 -783 420 -85 19 -134 21 -426 25
-291 3 -334 1 -362 -13z"/>
<path d="M1823 1559 c-21 -6 -56 -36 -101 -87 -163 -184 -305 -291 -492 -369
-198 -83 -272 -95 -645 -102 -300 -6 -311 -7 -341 -28 -79 -56 -83 -165 -9
-233 l27 -25 305 -3 c270 -3 319 0 426 18 309 52 588 191 818 407 93 87 185
203 198 248 20 72 -27 155 -98 175 -41 11 -45 11 -88 -1z"/>
</g>
</svg>
