<?xml version="1.0" standalone="no"?>
<!DOCTYPE svg PUBLIC "-//W3C//DTD SVG 20010904//EN"
 "http://www.w3.org/TR/2001/REC-SVG-20010904/DTD/svg10.dtd">
<svg version="1.0" xmlns="http://www.w3.org/2000/svg"
 width="512.000000pt" height="512.000000pt" viewBox="0 0 512.000000 512.000000"
 preserveAspectRatio="xMidYMid meet">

<g transform="translate(0.000000,512.000000) scale(0.100000,-0.100000)"
fill="#000000" stroke="none">
<path d="M2415 5114 c-381 -39 -668 -122 -972 -279 -371 -192 -701 -488 -931
-833 -396 -595 -516 -1323 -333 -2018 44 -166 92 -291 187 -480 l86 -172 -225
-663 c-124 -365 -224 -665 -223 -666 0 -1 313 98 695 219 l694 221 56 -31
c145 -79 406 -173 601 -217 190 -43 338 -58 570 -58 244 0 395 19 626 78 426
109 826 339 1144 657 393 393 631 878 712 1448 21 155 16 515 -11 680 -41 259
-112 481 -227 716 -122 251 -278 469 -474 664 -387 387 -871 629 -1430 715
-101 15 -459 28 -545 19z m423 -405 c685 -75 1289 -481 1629 -1094 194 -350
283 -784 243 -1186 -50 -490 -261 -932 -610 -1279 -570 -568 -1387 -762 -2155
-513 -143 46 -330 132 -441 203 -27 16 -55 30 -63 30 -9 0 -193 -56 -409 -125
-217 -69 -395 -125 -396 -125 -2 0 51 159 117 353 66 193 124 368 130 388 10
35 8 41 -53 135 -326 503 -420 1130 -255 1704 229 797 930 1396 1760 1505 125
16 375 18 503 4z"/>
<path d="M1666 3739 c-80 -42 -195 -187 -236 -297 -85 -224 -51 -478 98 -737
95 -164 290 -418 445 -581 242 -254 475 -410 787 -529 250 -95 430 -145 525
-145 83 0 219 36 303 79 145 76 229 162 263 270 27 84 37 234 18 257 -22 26
-481 250 -563 275 -53 16 -74 1 -171 -120 -51 -64 -110 -133 -130 -155 -35
-35 -42 -38 -81 -33 -55 6 -287 120 -389 191 -184 129 -368 325 -481 514 -50
83 -47 102 37 197 87 98 129 169 129 215 0 30 -164 440 -221 552 -31 61 -49
68 -179 68 -96 -1 -121 -4 -154 -21z"/>
</g>
</svg>
